<?xml version="1.0" standalone="no"?>
<!DOCTYPE svg PUBLIC "-//W3C//DTD SVG 20010904//EN"
 "http://www.w3.org/TR/2001/REC-SVG-20010904/DTD/svg10.dtd">
<svg version="1.0" xmlns="http://www.w3.org/2000/svg"
 width="454.000000pt" height="256.000000pt" viewBox="0 0 454.000000 256.000000"
 preserveAspectRatio="xMidYMid meet">
 <style type="text/css"> @import url(style.css); </style>

<g transform="translate(0.000000,256.000000) scale(0.100000,-0.100000)"
class="coloricons-logo" stroke="none">
<path d="M46 1885 c-5 -13 93 -15 839 -15 752 0 845 -2 845 -15 0 -9 6 -18 13
-21 10 -4 -26 -119 -145 -457 -87 -249 -160 -462 -162 -474 l-5 -23 1528 0
c1347 0 1530 2 1541 15 11 13 -151 15 -1445 15 -1339 0 -1457 1 -1451 16 24
62 336 960 336 966 0 4 -425 8 -944 8 -830 0 -945 -2 -950 -15z m1724 -25 c0
-5 -2 -10 -4 -10 -3 0 -8 5 -11 10 -3 6 -1 10 4 10 6 0 11 -4 11 -10z m70 -5
c0 -9 6 -18 13 -21 10 -4 -27 -122 -147 -464 l-161 -460 -28 0 c-16 0 -27 4
-25 9 2 5 77 221 168 480 91 259 168 471 172 471 5 0 8 -7 8 -15z m40 5 c0 -5
-2 -10 -4 -10 -3 0 -8 5 -11 10 -3 6 -1 10 4 10 6 0 11 -4 11 -10z"/>
<path d="M96 1813 c-3 -3 -6 -21 -6 -38 0 -18 -13 -104 -30 -191 -16 -88 -30
-162 -30 -166 0 -5 14 -8 30 -8 17 0 30 2 30 4 0 13 51 270 54 274 3 2 69 -57
148 -132 79 -74 155 -144 169 -155 l25 -19 33 181 c44 250 43 227 10 227 -22
0 -30 -5 -33 -22 -2 -13 -14 -74 -25 -137 -11 -62 -22 -116 -25 -118 -3 -3
-50 37 -104 88 -151 144 -238 219 -246 212z"/>
<path d="M602 1708 c-7 -46 -15 -95 -19 -110 l-5 -28 202 0 202 0 -19 -32
c-33 -58 -68 -68 -244 -68 -154 0 -157 0 -163 -22 -3 -13 -6 -26 -6 -30 0 -5
73 -8 163 -8 154 0 166 1 214 25 79 40 109 94 133 240 20 124 20 115 -11 115
-31 0 -35 -7 -45 -92 l-6 -58 -175 0 c-148 0 -174 2 -170 14 3 8 9 42 13 75
l7 61 -30 0 c-29 0 -29 -1 -41 -82z"/>
<path d="M1130 1761 c0 -16 -13 -100 -30 -186 -16 -86 -30 -159 -30 -161 0 -9
308 -3 343 7 49 13 106 64 128 115 17 37 49 192 49 235 0 14 -7 19 -27 19 -28
0 -28 -1 -45 -105 -31 -193 -49 -208 -246 -213 l-133 -4 5 24 c6 24 41 222 49
271 4 25 2 27 -29 27 -31 0 -34 -3 -34 -29z"/>
<path d="M4045 1387 c-4 -23 -29 -110 -56 -193 -27 -83 -49 -157 -49 -163 0
-6 12 -11 28 -11 26 0 29 5 71 140 25 77 48 139 52 138 4 -2 65 -66 136 -143
170 -184 159 -176 173 -124 7 24 31 102 55 173 23 72 45 146 48 164 6 30 5 32
-22 32 -25 0 -30 -5 -36 -32 -13 -59 -76 -248 -83 -248 -4 0 -52 50 -107 110
-55 61 -123 130 -152 155 l-51 45 -7 -43z"/>
<path d="M1857 1393 c-4 -3 -7 -15 -7 -25 0 -10 -22 -88 -50 -173 -27 -85 -50
-159 -50 -165 0 -13 293 -13 341 0 108 30 182 142 224 338 l7 32 -230 0 c-126
0 -232 -3 -235 -7z m377 -105 c-23 -79 -66 -160 -97 -183 -25 -17 -46 -20
-172 -23 l-143 -3 41 130 42 130 172 1 172 0 -15 -52z"/>
<path d="M2485 1388 c-44 -15 -92 -54 -120 -97 -24 -35 -95 -230 -95 -258 0
-10 47 -13 229 -13 l229 0 6 23 c3 12 6 25 6 29 0 4 -89 9 -199 10 l-198 3 14
48 14 47 202 0 203 0 11 29 c6 17 8 32 5 35 -3 3 -93 6 -200 6 l-194 0 14 22
c8 12 27 31 42 43 25 18 45 20 202 23 138 3 174 6 174 17 0 7 3 20 6 29 5 14
-12 16 -157 15 -90 0 -177 -5 -194 -11z"/>
<path d="M2991 1387 c-19 -6 -49 -26 -68 -44 -34 -35 -93 -129 -93 -150 0 -10
46 -13 195 -13 107 0 195 -3 195 -6 0 -3 -10 -19 -21 -36 -36 -50 -70 -58
-248 -58 -156 0 -159 0 -165 -22 -3 -13 -6 -26 -6 -30 0 -12 310 -9 353 3 61
17 147 116 172 197 l6 22 -195 0 c-108 0 -196 4 -196 8 0 14 54 60 83 71 16 6
97 11 182 11 130 0 154 2 159 16 17 43 14 44 -156 43 -90 -1 -178 -6 -197 -12z"/>
<path d="M3405 1373 c-4 -16 -29 -98 -56 -183 -27 -85 -49 -158 -49 -162 0 -5
12 -8 28 -8 27 0 29 4 79 163 71 223 70 217 33 217 -24 0 -31 -5 -35 -27z"/>
<path d="M3613 1376 c-71 -33 -113 -94 -158 -228 -19 -58 -35 -111 -35 -117 0
-14 301 -15 353 0 61 17 147 116 172 197 l6 22 -129 0 -130 0 -11 -31 c-6 -18
-11 -34 -11 -35 0 -2 43 -4 96 -4 l96 0 -19 -31 c-33 -57 -71 -69 -220 -69
l-132 0 30 88 c59 164 72 172 299 172 88 0 160 3 160 8 0 4 3 17 6 30 l6 22
-163 0 c-152 0 -168 -2 -216 -24z"/>
<path d="M4440 1055 c-26 -32 13 -81 48 -59 34 22 22 74 -18 74 -10 0 -23 -7
-30 -15z m44 -14 c3 -5 -1 -14 -8 -20 -16 -13 -32 2 -21 19 8 12 22 13 29 1z"/>
</g>
</svg>
